<svg width="247" height="189" viewBox="0 0 247 189" fill="none" xmlns="http://www.w3.org/2000/svg">
<g id="bebe_escutando_raggeaton" clip-path="url(#clip0)">
<path id="Vector" d="M61.7096 107.882C61.6881 107.562 61.6035 107.249 61.4609 106.961C61.3183 106.674 61.1204 106.417 60.8784 106.206L56.9909 102.818C56.5343 102.419 55.9457 102.204 55.3397 102.215C54.7336 102.226 54.1533 102.462 53.7114 102.877C53.6519 102.932 53.5959 102.99 53.5437 103.052L43.3938 114.689L42.2831 115.961L25.3014 135.433C24.8767 135.922 24.6632 136.561 24.7078 137.207C24.7523 137.854 25.0512 138.457 25.539 138.884L29.4229 142.272C29.912 142.697 30.5498 142.912 31.1967 142.868C31.8435 142.824 32.4466 142.525 32.8737 142.038L42.2831 131.248L50.7635 121.521L61.1124 109.656C61.3239 109.415 61.4856 109.133 61.5881 108.829C61.6906 108.524 61.7319 108.203 61.7096 107.882Z" fill="#FB9C9C"/>
<path id="Vector_2" d="M123.272 85.9304L120.911 81.348C120.613 80.773 120.099 80.3396 119.481 80.1426C118.864 79.9455 118.194 80.001 117.618 80.2967L98.3832 90.2125L86.2914 96.447L79.4282 99.9852C79.2487 100.077 79.082 100.192 78.9323 100.327C78.5993 100.617 78.3527 100.993 78.2197 101.414C78.1209 101.719 78.0839 102.042 78.1108 102.362C78.1378 102.682 78.2282 102.994 78.3768 103.279L79.2989 105.071L80.738 107.861C80.8847 108.147 81.0864 108.401 81.3316 108.608C81.5767 108.816 81.8605 108.972 82.1665 109.07C82.4095 109.146 82.6627 109.185 82.9174 109.185C83.3053 109.185 83.6876 109.092 84.0317 108.913L92.1836 104.711L102.843 99.2132L122.221 89.2241C122.796 88.9255 123.229 88.4114 123.426 87.7942C123.623 87.177 123.568 86.5069 123.272 85.9304V85.9304Z" fill="#FB9C9C"/>
<path id="Vector_3" d="M102.948 99.4333L102.843 99.2133L98.7149 90.7085C98.423 90.1305 97.9146 89.6912 97.3004 89.486C96.9935 89.3836 96.6691 89.3435 96.3465 89.3681C96.0238 89.3927 95.7093 89.4815 95.4214 89.6292L85.3483 95.7345L78.6423 99.8C78.5913 99.8258 78.5443 99.8587 78.5027 99.8978C78.1184 100.244 77.9123 101.131 77.7448 101.857C77.6853 102.109 77.6365 102.329 77.5875 102.472C77.5701 102.531 77.5492 102.594 77.5352 102.657C77.3954 103.222 77.4623 103.818 77.7238 104.337L78.548 105.982L80.0358 108.944C80.2406 109.35 80.554 109.692 80.9413 109.93C81.3286 110.169 81.7745 110.295 82.2294 110.296C82.6033 110.295 82.9718 110.207 83.3051 110.037L92.6865 106.335L101.858 102.713C102.437 102.422 102.877 101.913 103.081 101.298C103.285 100.684 103.237 100.013 102.948 99.4333H102.948Z" fill="#2F2E41"/>
<path id="Vector_4" d="M69.6738 86.2856C79.9975 86.2856 88.3665 77.9166 88.3665 67.5929C88.3665 57.2691 79.9975 48.9001 69.6738 48.9001C59.35 48.9001 50.981 57.2691 50.981 67.5929C50.981 77.9166 59.35 86.2856 69.6738 86.2856Z" fill="#FB9C9C"/>
<path id="Vector_5" d="M70.2144 142.177C70.1964 141.702 70.0395 141.243 69.7632 140.856C69.487 140.47 69.1035 140.172 68.6601 140.001C68.3788 139.89 68.079 139.833 67.7765 139.834H62.6212C61.973 139.834 61.3515 140.092 60.8932 140.55C60.4348 141.009 60.177 141.63 60.1763 142.279V185.941C60.177 186.589 60.4348 187.211 60.8932 187.669C61.3515 188.127 61.973 188.385 62.6212 188.386H67.7765C68.4247 188.385 69.0462 188.127 69.5046 187.669C69.9629 187.211 70.2207 186.589 70.2214 185.941V142.279C70.2227 142.245 70.2204 142.211 70.2144 142.177Z" fill="#FB9C9C"/>
<path id="Vector_6" d="M93.6367 161.674C93.566 161.507 93.4769 161.349 93.3711 161.202L84.5834 148.908L77.343 138.782H64.9928L65.8659 140.001L67.4203 142.177L72.2366 148.911L82.5577 163.347L85.2016 167.042C85.5785 167.569 86.1491 167.925 86.7883 168.032C87.4275 168.139 88.0829 167.987 88.6106 167.611L92.8053 164.611C93.2561 164.288 93.5839 163.821 93.7349 163.288C93.886 162.754 93.8513 162.185 93.6367 161.674ZM68.3842 126.25C68.0062 125.724 67.4347 125.368 66.795 125.262C66.1553 125.156 65.4996 125.308 64.9718 125.685L60.7771 128.681C60.2502 129.059 59.8947 129.631 59.7886 130.271C59.6826 130.91 59.8345 131.566 60.2112 132.094L61.748 134.242H74.0982L68.3842 126.25Z" fill="#FB9C9C"/>
<path id="Vector_7" d="M93.7168 161.792C93.6921 161.751 93.6654 161.712 93.6367 161.674C93.3123 161.233 92.8855 160.878 92.3932 160.64L87.7792 158.345C86.5707 157.744 85.2715 157.891 84.8839 158.673L82.5577 163.347L72.9911 182.564C72.5998 183.346 73.267 184.471 74.4721 185.071L79.0859 187.37C79.544 187.603 80.0492 187.73 80.5634 187.74C81.213 187.74 81.7543 187.499 81.9814 187.041L93.8741 163.151C93.9678 162.93 94.0026 162.689 93.975 162.451C93.9474 162.213 93.8585 161.986 93.7168 161.792Z" fill="#FB9C9C"/>
<path id="Vector_8" d="M66.0859 102.137L65.3106 101.375L64.881 100.946L62.4152 98.5182C62.0006 98.1104 61.4548 97.8629 60.8748 97.8197C60.8085 97.8162 60.7455 97.8127 60.6792 97.8127C60.5325 97.8161 60.309 97.7952 60.047 97.7742C59.2194 97.7044 58.1855 97.6136 57.8257 97.9838L53.0512 102.112L42.9606 110.834C42.5945 111.203 42.3569 111.681 42.2831 112.196C42.2632 112.319 42.2538 112.444 42.2551 112.569C42.2556 112.681 42.265 112.792 42.2831 112.901C42.3573 113.43 42.604 113.92 42.985 114.295L43.3938 114.689L49.981 121.004C50.443 121.458 51.0659 121.71 51.7134 121.706C51.9961 121.706 52.2765 121.655 52.5412 121.556C52.8826 121.43 53.1916 121.23 53.4458 120.969L64.9264 107.03L65.6773 106.118L66.1105 105.594C66.5652 105.132 66.8179 104.509 66.8133 103.86C66.8087 103.212 66.5471 102.592 66.0859 102.137Z" fill="#2F2E41"/>
<path id="Vector_9" d="M67.1854 74.521L67.1659 73.8225C68.4655 73.7863 69.6112 73.7048 70.4721 73.0759C70.7162 72.8874 70.9168 72.6486 71.0603 72.3757C71.2038 72.1028 71.2869 71.8021 71.3038 71.4942C71.319 71.3061 71.2905 71.117 71.2207 70.9417C71.1508 70.7664 71.0415 70.6095 70.9012 70.4833C70.3297 70.0006 69.4101 70.1568 68.7399 70.4642L68.1619 70.7292L69.2703 62.6294L69.9623 62.7242L69.0196 69.6142C69.9303 69.3464 70.7741 69.4617 71.3521 69.9498C71.574 70.1435 71.7481 70.386 71.8608 70.6582C71.9736 70.9303 72.0218 71.2249 72.0019 71.5188C71.9815 71.9325 71.8709 72.3367 71.6778 72.7031C71.4847 73.0696 71.2138 73.3893 70.8841 73.64C69.778 74.4484 68.3405 74.4886 67.1854 74.521Z" fill="#2F2E41"/>
<path id="Vector_10" d="M77.1471 63.3184H73.385V64.0169H77.1471V63.3184Z" fill="#2F2E41"/>
<path id="Vector_11" d="M65.2719 63.3184H61.5097V64.0169H65.2719V63.3184Z" fill="#2F2E41"/>
<path id="Vector_12" d="M67.9428 39.589C65.87 31.2801 57.8352 24.9003 49.2257 25.0591C44.9634 25.1787 40.8532 26.669 37.5049 29.309C35.8169 30.6228 34.3636 32.2128 33.2066 34.0118C31.909 36.0369 31.0943 38.3229 30.4582 40.6302C29.1729 45.2922 28.5671 50.5676 25.3054 54.3748C23.953 55.916 22.2854 57.1489 20.4155 57.9901C18.5455 58.8314 16.5168 59.2614 14.4664 59.2511C12.4006 59.2189 10.3703 58.7089 8.53451 57.761C6.69875 56.813 5.10739 55.453 3.88507 53.7873C1.42992 50.514 0.221196 45.9871 1.63959 42.0366C2.33562 40.0981 3.83227 38.2669 5.9728 37.9437C6.949 37.8115 7.94252 37.9677 8.83107 38.3931C9.71962 38.8184 10.4644 39.4942 10.9738 40.3374C11.9364 42.0265 11.6285 44.2803 10.4225 45.7702C9.15227 47.3394 7.0295 47.7739 5.15724 47.1434C4.27724 46.8443 3.50343 46.2953 2.93036 45.5636C2.51168 45.0349 1.76962 45.7761 2.18399 46.2994C2.84806 47.0958 3.70548 47.7083 4.67413 48.0784C5.64278 48.4485 6.69022 48.5637 7.71615 48.413C8.73991 48.2581 9.70148 47.8251 10.496 47.1612C11.2906 46.4973 11.8875 45.6279 12.2219 44.648C12.5884 43.6764 12.6845 42.6236 12.5001 41.6016C12.3156 40.5797 11.8575 39.627 11.1744 38.8448C10.4627 38.0709 9.56419 37.4925 8.56497 37.1652C7.56576 36.8378 6.49925 36.7724 5.46752 36.9752C3.25729 37.4431 1.65217 39.2609 0.819156 41.2752C-0.00166133 43.3679 -0.218216 45.649 0.194163 47.8588C0.574715 49.9911 1.40009 52.0194 2.61657 53.8116C3.83304 55.6037 5.41334 57.1196 7.25455 58.2605C10.9808 60.5485 15.6318 60.8633 19.7196 59.3936C21.7622 58.6711 23.6276 57.5224 25.1922 56.0237C26.8736 54.318 28.1604 52.2643 28.9619 50.0074C30.805 45.1818 31.075 39.7819 33.6828 35.2459C35.9574 31.3944 39.5453 28.4929 43.7875 27.0744C48.0048 25.6173 52.6212 25.839 56.6796 27.6933C60.715 29.5622 63.9655 32.7896 65.8632 36.8116C66.3151 37.7916 66.6726 38.8124 66.9307 39.8603C67.0943 40.5158 68.1062 40.2438 67.9428 39.589L67.9428 39.589Z" fill="#2F2E41"/>
<path id="Vector_13" d="M88.146 107.033C88.0028 106.482 87.8351 105.94 87.6431 105.409C86.4802 102.163 84.4407 99.3029 81.7508 97.1456C81.4469 96.8976 81.1326 96.6601 80.8077 96.4331C79.1958 95.2962 77.4133 94.4231 75.527 93.8464C75.6781 93.3072 75.6756 92.7365 75.5197 92.1987C75.3086 91.5209 74.8842 90.9295 74.3098 90.5125C73.7354 90.0954 73.0417 89.8751 72.3319 89.8842H67.7773C67.0658 89.8748 66.3704 90.0953 65.7943 90.513C65.2183 90.9306 64.7925 91.5231 64.5804 92.2023C64.425 92.7385 64.4224 93.3075 64.5731 93.845C60.7497 95.019 57.4035 97.388 55.0261 100.604C52.6486 103.82 51.3651 107.714 51.3642 111.714V147.924C51.3642 150.395 52.3037 152.404 53.4598 152.404H86.6407C86.6546 152.404 96.0954 152.404 96.1094 152.396C97.2481 152.359 98.1666 150.365 98.1666 147.924C98.1666 139.564 96.3197 127.815 92.7578 120.252L88.7363 111.714C88.7371 110.135 88.5387 108.563 88.146 107.033Z" fill="#2F2E41"/>
<path id="Vector_14" d="M50.8403 71.8967C48.5292 71.8967 46.649 69.0764 46.649 65.6098C46.649 62.1432 48.5292 59.3229 50.8403 59.3229C53.1513 59.3229 55.0315 62.1432 55.0315 65.6098C55.0315 69.0764 53.1513 71.8967 50.8403 71.8967Z" fill="#3F3D56"/>
<path id="Vector_15" d="M88.2124 71.8967C85.9013 71.8967 84.0211 69.0764 84.0211 65.6098C84.0211 62.1432 85.9013 59.3229 88.2124 59.3229C90.5234 59.3229 92.4036 62.1432 92.4036 65.6098C92.4036 69.0764 90.5234 71.8967 88.2124 71.8967Z" fill="#3F3D56"/>
<path id="Vector_16" d="M89.3886 70.9133C89.3054 70.9133 89.2235 70.8934 89.1495 70.8554C89.0755 70.8174 89.0117 70.7624 88.9632 70.6948C88.9147 70.6272 88.8829 70.5491 88.8706 70.4669C88.8582 70.3846 88.8656 70.3006 88.8921 70.2218C89.8934 67.2442 90.1946 64.0758 89.7723 60.9628C89.3501 57.8499 88.2156 54.8762 86.4573 52.273C84.6989 49.6697 82.3639 47.507 79.6338 45.9529C76.9037 44.3988 73.852 43.4951 70.7159 43.3121C67.5798 43.1292 64.4437 43.6718 61.5514 44.8979C58.6591 46.124 56.0884 48.0005 54.0392 50.3816C51.9901 52.7627 50.5175 55.5842 49.7361 58.6269C48.9547 61.6696 48.8854 64.8516 49.5336 67.9254C49.5619 68.0613 49.5352 68.2027 49.4593 68.3189C49.3834 68.435 49.2645 68.5163 49.1288 68.545C48.993 68.5736 48.8515 68.5472 48.7351 68.4716C48.6188 68.396 48.5372 68.2774 48.5083 68.1417C47.8263 64.9099 47.8988 61.5644 48.7201 58.3652C49.5414 55.1659 51.0895 52.1992 53.2439 49.6956C55.3983 47.192 58.101 45.2189 61.142 43.9297C64.183 42.6406 67.4803 42.0701 70.7776 42.2625C74.075 42.455 77.2835 43.4052 80.1539 45.0394C83.0242 46.6736 85.4791 48.9477 87.3276 51.685C89.1761 54.4223 90.3684 57.5489 90.812 60.822C91.2555 64.095 90.9383 67.4262 89.885 70.5567C89.85 70.6606 89.7832 70.7509 89.6942 70.8149C89.6051 70.8789 89.4983 70.9133 89.3886 70.9133Z" fill="#3F3D56"/>
<path id="Vector_17" d="M61.6806 53.0367C60.9404 54.0471 61.3053 55.4087 62.0851 56.2798C63.1 57.4133 64.7182 57.4849 66.1234 57.2745C67.7001 57.0384 69.3725 56.2997 70.9688 56.7975C72.3293 57.2218 73.2999 58.4558 74.7134 58.7658C75.9669 59.0407 77.4659 58.6768 77.9054 57.3407C78.1166 56.6986 77.1051 56.4235 76.895 57.0621C76.6107 57.9265 75.3831 57.9093 74.6801 57.6699C73.553 57.2862 72.6844 56.3528 71.5767 55.907C70.2706 55.3813 68.8537 55.6187 67.524 55.9181C66.2707 56.2003 64.8283 56.6187 63.5798 56.0915C62.6559 55.7014 61.9208 54.4727 62.5853 53.5656C62.9843 53.021 62.0754 52.4977 61.6806 53.0367H61.6806Z" fill="#2F2E41"/>
<path id="Vector_18" d="M111.956 188.379H36.5132C36.4206 188.379 36.3317 188.342 36.2662 188.277C36.2007 188.211 36.1639 188.122 36.1639 188.03C36.1639 187.937 36.2007 187.848 36.2662 187.783C36.3317 187.717 36.4206 187.68 36.5132 187.68H111.956C112.049 187.68 112.137 187.717 112.203 187.783C112.268 187.848 112.305 187.937 112.305 188.03C112.305 188.122 112.268 188.211 112.203 188.277C112.137 188.342 112.049 188.379 111.956 188.379Z" fill="#3F3D56"/>
<path id="Vector_19" d="M246.359 81.1857H163.466C163.382 81.1862 163.298 81.1701 163.22 81.1381C163.141 81.1062 163.07 81.059 163.01 80.9995C162.95 80.9399 162.903 80.869 162.87 80.791C162.838 80.713 162.821 80.6293 162.821 80.5448C162.821 80.4602 162.838 80.3766 162.87 80.2985C162.903 80.2205 162.95 80.1496 163.01 80.0901C163.07 80.0305 163.141 79.9834 163.22 79.9514C163.298 79.9195 163.382 79.9033 163.466 79.9039H246.359C246.444 79.9033 246.527 79.9195 246.606 79.9514C246.684 79.9834 246.755 80.0305 246.815 80.0901C246.875 80.1496 246.923 80.2205 246.955 80.2985C246.987 80.3766 247.004 80.4602 247.004 80.5448C247.004 80.6293 246.987 80.713 246.955 80.791C246.923 80.869 246.875 80.9399 246.815 80.9995C246.755 81.059 246.684 81.1062 246.606 81.1381C246.527 81.1701 246.444 81.1862 246.359 81.1857Z" fill="#E6E6E6"/>
<path id="Vector_20" d="M211.121 45.821H178.887C177.086 45.819 175.359 45.1026 174.085 43.829C172.812 42.5554 172.095 40.8287 172.093 39.0276V6.79325C172.095 4.99218 172.812 3.26546 174.085 1.99193C175.359 0.718388 177.086 0.00203141 178.887 1.52588e-05H211.121C212.922 0.00203141 214.649 0.718388 215.922 1.99193C217.196 3.26546 217.912 4.99218 217.914 6.79325V39.0276C217.912 40.8287 217.196 42.5554 215.922 43.829C214.649 45.1026 212.922 45.819 211.121 45.821Z" fill="#E79346"/>
<path id="Vector_21" opacity="0.1" d="M230.939 60.7698H198.704C196.903 60.7678 195.177 60.0514 193.903 58.7779C192.629 57.5043 191.913 55.7776 191.911 53.9765V21.7422C191.913 19.9411 192.629 18.2143 193.903 16.9408C195.177 15.6672 196.903 14.9508 198.704 14.9488H230.939C232.74 14.9508 234.467 15.6672 235.74 16.9408C237.014 18.2143 237.73 19.9411 237.732 21.7422V53.9765C237.73 55.7776 237.014 57.5043 235.74 58.7779C234.466 60.0514 232.74 60.7678 230.939 60.7698Z" fill="black"/>
<path id="Vector_22" d="M175.356 99.6638C175.263 99.6638 175.174 99.627 175.109 99.5615C175.043 99.496 175.007 99.4072 175.007 99.3146V93.0277C175.007 92.935 175.043 92.8462 175.109 92.7807C175.174 92.7152 175.263 92.6784 175.356 92.6784C175.448 92.6784 175.537 92.7152 175.603 92.7807C175.668 92.8462 175.705 92.935 175.705 93.0277V99.3146C175.705 99.4072 175.668 99.496 175.603 99.5615C175.537 99.627 175.448 99.6638 175.356 99.6638Z" fill="#CCCCCC"/>
<path id="Vector_23" d="M203.821 99.6638C203.729 99.6638 203.64 99.627 203.575 99.5615C203.509 99.496 203.472 99.4072 203.472 99.3146V93.0277C203.472 92.935 203.509 92.8462 203.575 92.7807C203.64 92.7152 203.729 92.6784 203.821 92.6784C203.914 92.6784 204.003 92.7152 204.068 92.7807C204.134 92.8462 204.171 92.935 204.171 93.0277V99.3146C204.171 99.4072 204.134 99.496 204.068 99.5615C204.003 99.627 203.914 99.6638 203.821 99.6638Z" fill="#3F3D56"/>
<path id="Vector_24" d="M206.266 99.6638C206.174 99.6638 206.085 99.627 206.019 99.5615C205.954 99.496 205.917 99.4072 205.917 99.3146V93.0277C205.917 92.935 205.954 92.8462 206.019 92.7807C206.085 92.7152 206.174 92.6784 206.266 92.6784C206.359 92.6784 206.448 92.7152 206.513 92.7807C206.579 92.8462 206.616 92.935 206.616 93.0277V99.3146C206.616 99.4072 206.579 99.496 206.513 99.5615C206.448 99.627 206.359 99.6638 206.266 99.6638Z" fill="#3F3D56"/>
<path id="Vector_25" d="M180.483 99.7776C180.341 99.7773 180.201 99.7393 180.078 99.6676L175.924 96.8659C175.916 96.8611 175.908 96.8564 175.9 96.8514C175.786 96.7792 175.691 96.6787 175.627 96.5596C175.562 96.4405 175.529 96.3067 175.53 96.1711C175.53 96.0287 175.567 95.8886 175.638 95.7653C175.709 95.6419 175.812 95.5398 175.936 95.4693L180.057 92.6874C180.18 92.6115 180.321 92.5697 180.465 92.5664C180.609 92.5631 180.752 92.5984 180.878 92.6686C181.004 92.7388 181.109 92.8414 181.182 92.9659C181.255 93.0903 181.293 93.232 181.293 93.3763V98.966C181.293 99.1808 181.207 99.3868 181.056 99.5388C180.904 99.6909 180.698 99.7767 180.483 99.7776ZM180.448 99.0756C180.463 99.0804 180.479 99.0817 180.495 99.0795C180.511 99.0773 180.526 99.0716 180.539 99.0628C180.556 99.0533 180.57 99.0392 180.58 99.0222C180.59 99.0051 180.595 98.9857 180.595 98.966V93.3763C180.595 93.3566 180.59 93.3374 180.58 93.3204C180.57 93.3034 180.556 93.2893 180.539 93.2795C180.522 93.2697 180.503 93.2645 180.483 93.2645C180.464 93.2644 180.444 93.2696 180.427 93.2794L176.306 96.0615C176.236 96.1024 176.229 96.1471 176.229 96.1711C176.229 96.1908 176.234 96.2102 176.243 96.2272C176.253 96.2443 176.268 96.2583 176.285 96.2678L176.306 96.2808L180.448 99.0756Z" fill="#CCCCCC"/>
<path id="Vector_26" d="M234.034 99.6638C233.941 99.6638 233.852 99.627 233.787 99.5615C233.721 99.496 233.684 99.4072 233.684 99.3146V93.0277C233.684 92.935 233.721 92.8462 233.787 92.7807C233.852 92.7152 233.941 92.6784 234.034 92.6784C234.126 92.6784 234.215 92.7152 234.28 92.7807C234.346 92.8462 234.383 92.935 234.383 93.0277V99.3146C234.383 99.4072 234.346 99.496 234.28 99.5615C234.215 99.627 234.126 99.6638 234.034 99.6638Z" fill="#CCCCCC"/>
<path id="Vector_27" d="M228.9 99.776C228.76 99.7758 228.622 99.7384 228.501 99.6678C228.377 99.5973 228.275 99.4952 228.203 99.3718C228.132 99.2485 228.095 99.1084 228.096 98.966V93.3763C228.096 93.234 228.133 93.0943 228.204 92.9711C228.276 92.8479 228.378 92.7456 228.501 92.6745C228.624 92.6034 228.764 92.566 228.906 92.566C229.049 92.566 229.188 92.6035 229.311 92.6746L233.474 95.4823C233.593 95.5534 233.691 95.6544 233.759 95.7753C233.826 95.8962 233.861 96.0327 233.859 96.1711C233.86 96.3112 233.824 96.449 233.755 96.5709C233.686 96.6928 233.586 96.7945 233.466 96.8659L229.332 99.6548C229.201 99.7328 229.052 99.7747 228.9 99.776ZM228.794 98.966C228.794 98.9856 228.8 99.0048 228.809 99.0218C228.819 99.0388 228.833 99.053 228.85 99.0628C228.867 99.0726 228.886 99.0778 228.906 99.0778C228.926 99.0778 228.945 99.0726 228.962 99.0628L233.099 96.2707C233.117 96.2609 233.132 96.2465 233.143 96.2291C233.154 96.2117 233.16 96.1919 233.16 96.1715V96.1711C233.161 96.1514 233.156 96.132 233.146 96.115C233.136 96.098 233.122 96.0839 233.105 96.0744L228.941 93.2666C228.926 93.2616 228.91 93.2602 228.894 93.2624C228.879 93.2646 228.864 93.2704 228.85 93.2794C228.833 93.2889 228.819 93.303 228.809 93.32C228.799 93.3371 228.794 93.3565 228.794 93.3762L228.794 98.966Z" fill="#CCCCCC"/>
<g id="bolinha">
<path id="Vector_28" d="M175.191 85.3825C177.506 85.3825 179.383 83.506 179.383 81.1913C179.383 78.8765 177.506 77 175.191 77C172.876 77 171 78.8765 171 81.1913C171 83.506 172.876 85.3825 175.191 85.3825Z" fill="#3F3D56"/>
</g>
</g>
<defs>
<clipPath id="clip0">
<rect width="247" height="188.386" fill="white"/>
</clipPath>
</defs>
</svg>
