<svg width="247" height="162" viewBox="0 0 247 162" fill="none" xmlns="http://www.w3.org/2000/svg">
<g id="moca_olhando_arvore" clip-path="url(#clip0)">
<path id="Vector" d="M47.5171 161.635C73.76 161.635 95.0341 160.55 95.0341 159.211C95.0341 157.872 73.76 156.787 47.5171 156.787C21.2741 156.787 0 157.872 0 159.211C0 160.55 21.2741 161.635 47.5171 161.635Z" fill="#E6E6E6"/>
<path id="Vector_2" d="M185.533 98.0113L177.655 99.0329L177.253 99.0848L166.767 100.444L118.901 106.652C116.854 105.237 114.923 103.782 113.129 102.292L167.906 99.054L177.38 98.4933L177.778 98.4703L185.533 98.0113Z" fill="#E6E6E6"/>
<path id="Vector_3" d="M150.777 59.4148L109.16 64.8125C110.368 63.7852 111.629 62.7316 112.943 61.6518L150.777 59.4148Z" fill="#E6E6E6"/>
<path id="Vector_4" d="M247 93.4105C246.215 94.7066 245.37 95.9753 244.465 97.2164L208.307 92.5272L188.414 89.9464L207.983 91.1043L247 93.4105Z" fill="#E6E6E6"/>
<path id="Vector_5" d="M230.015 111.366C216.706 120.898 198.923 126.719 179.389 126.719C163.41 126.719 145.045 121.246 129.918 113.291C131.114 110.189 132.781 107.676 135.099 106.403C135.156 106.37 135.216 106.337 135.275 106.309C136.265 105.8 137.358 105.523 138.47 105.5C152.104 105.116 150.568 120.478 167.658 99.3555C178.286 86.2192 190.326 81.699 198.556 83.1603C198.708 83.1872 198.858 83.216 199.008 83.2467C203.777 84.2375 207.19 87.2907 208.175 91.8666C210.863 104.348 202.99 114.333 217.392 111.261C221.559 110.394 225.863 110.43 230.015 111.366Z" fill="#FB9C9C"/>
<path id="Vector_6" d="M189.641 126.209C182.943 122.476 178.774 117.378 177.248 111.058C176.115 106.366 176.441 101.086 178.215 95.3647C179.531 91.1464 181.503 87.162 184.06 83.5583C197.624 64.3586 198.849 51.8481 197.487 44.7339C195.994 36.9333 191.144 33.6937 191.096 33.6619L191.305 33.3399C191.355 33.3724 196.333 36.6874 197.861 44.6462C198.743 49.2345 198.328 54.4664 196.629 60.1964C194.515 67.3277 190.391 75.2623 184.374 83.7799C181.84 87.3507 179.886 91.2987 178.582 95.4783C175.671 104.862 175.26 117.752 189.828 125.874L189.641 126.209Z" fill="#3F3D56"/>
<path id="Vector_7" d="M177.792 89.8898C172.512 86.9465 172.659 82.2817 173.712 78.8868C174.179 77.3894 174.879 75.975 175.787 74.6958C180.539 67.9696 180.968 63.6001 180.492 61.119C179.974 58.4248 178.314 57.3187 178.297 57.3078L178.506 56.9858C178.58 57.0338 180.321 58.1934 180.869 61.0466C181.582 64.7619 179.978 69.4287 176.1 74.9175C175.216 76.1637 174.534 77.5416 174.079 79.0004C173.068 82.2597 172.924 86.7364 177.979 89.5545L177.792 89.8898Z" fill="#3F3D56"/>
<path id="Vector_8" d="M201.549 48.7971L201.362 48.4616C206.417 45.6434 206.273 41.1667 205.262 37.9076C204.807 36.4487 204.125 35.0708 203.24 33.8245C199.363 28.3359 197.759 23.669 198.472 19.9537C199.02 17.1005 200.761 15.9408 200.835 15.8929L201.044 16.2147C201.027 16.2258 199.359 17.3464 198.846 20.0413C198.375 22.521 198.809 26.8867 203.554 33.6029C204.462 34.8821 205.162 36.2964 205.629 37.7937C206.682 41.1886 206.829 45.8535 201.549 48.7971Z" fill="#3F3D56"/>
<path id="Vector_9" d="M212.822 29.6903C211.988 30.9701 210.679 31.866 209.184 32.1808C207.689 32.4957 206.13 32.2038 204.85 31.3694C203.571 30.5349 202.675 29.2262 202.36 27.7311C202.045 26.2361 202.337 24.6772 203.171 23.3974L203.173 23.3949C204.911 20.7303 213.664 17.8581 213.664 17.8581C213.664 17.8581 214.561 27.0256 212.822 29.6903Z" fill="#F9F36A"/>
<path id="Vector_10" d="M210.71 11.8321C209.876 13.1119 208.567 14.0078 207.072 14.3227C205.577 14.6376 204.018 14.3457 202.738 13.5112C201.458 12.6767 200.563 11.368 200.248 9.87301C199.933 8.37798 200.225 6.8191 201.059 5.53929L201.061 5.53679C202.799 2.87218 211.551 0 211.551 0C211.551 0 212.449 9.16751 210.71 11.8321Z" fill="#F9F36A"/>
<path id="Vector_11" d="M210.437 65.8897C210.068 65.8033 201.371 63.7813 198.472 65.162C197.252 65.7431 196.265 66.7222 195.675 67.9383C195.085 69.1545 194.927 70.5351 195.226 71.8533C195.525 73.1715 196.264 74.3487 197.32 75.1913C198.377 76.0338 199.69 76.4916 201.041 76.4894C201.474 76.4897 201.905 76.442 202.328 76.3473C202.764 76.2497 203.188 76.1035 203.591 75.9114C206.491 74.5288 210.4 66.5023 210.566 66.1605L210.671 65.9454L210.437 65.8897ZM203.426 75.5638C202.766 75.8783 202.05 76.0596 201.32 76.0975C200.59 76.1354 199.859 76.0291 199.17 75.7846C198.481 75.5401 197.847 75.1623 197.303 74.6727C196.76 74.1832 196.319 73.5914 196.004 72.9312C195.69 72.271 195.509 71.5554 195.471 70.8251C195.433 70.0949 195.539 69.3643 195.784 68.6751C196.028 67.986 196.406 67.3517 196.896 66.8085C197.385 66.2654 197.977 65.824 198.637 65.5095C199.313 65.1869 200.346 65.066 201.525 65.066C204.751 65.066 209.064 65.9781 210.112 66.2104C209.458 67.5239 205.949 74.3618 203.426 75.5638V75.5638Z" fill="#3F3D56"/>
<path id="Vector_12" d="M184.266 33.2673C182.783 33.2697 181.353 32.7162 180.258 31.716C177.884 29.5519 176.475 20.7349 176.416 20.3606L176.379 20.124L176.618 20.1392C176.996 20.1633 185.906 20.7545 188.279 22.9187C189.167 23.7275 189.789 24.786 190.064 25.9551C190.339 27.1241 190.254 28.349 189.82 29.4687C189.385 30.5885 188.622 31.5505 187.631 32.2285C186.64 32.9065 185.467 33.2686 184.266 33.2673H184.266ZM176.835 20.5399C177.081 21.9857 178.451 29.5496 180.516 31.4323C181.608 32.4268 183.049 32.947 184.524 32.8787C185.999 32.8104 187.387 32.1591 188.382 31.068C189.377 29.9769 189.897 28.5354 189.83 27.0604C189.762 25.5854 189.111 24.1977 188.02 23.2024C185.956 21.3199 178.298 20.6515 176.835 20.5399Z" fill="#3F3D56"/>
<path id="Vector_13" d="M176.244 47.0635C176.803 47.5732 177.257 48.188 177.578 48.8728C177.899 49.5577 178.083 50.2991 178.118 51.0548C178.152 51.8105 178.038 52.5657 177.781 53.2772C177.524 53.9887 177.129 54.6427 176.62 55.2017C176.11 55.7607 175.495 56.2138 174.81 56.5352C174.126 56.8566 173.384 57.04 172.628 57.0748C171.873 57.1097 171.117 56.9954 170.406 56.7384C169.694 56.4814 169.041 56.0868 168.482 55.577C166.131 53.4334 164.701 44.3337 164.701 44.3337C164.701 44.3337 173.893 44.9198 176.244 47.0635Z" fill="#F9F36A"/>
<path id="Vector_14" d="M193.9 47.275C193.741 46.5424 193.336 45.886 192.754 45.4143C192.171 44.9426 191.445 44.6838 190.695 44.6808C190.459 44.6817 190.223 44.7074 189.992 44.7576C188.276 45.1301 185.224 48.8688 185.096 49.0263L184.944 49.2126L185.159 49.3201C185.328 49.4046 189.003 51.225 190.927 51.225C191.081 51.2268 191.234 51.212 191.384 51.1808C192.236 50.996 192.979 50.4808 193.45 49.7485C193.922 49.0161 194.084 48.1265 193.9 47.275H193.9ZM193.128 49.5409C192.923 49.8625 192.656 50.1401 192.342 50.3574C192.029 50.5746 191.675 50.7273 191.302 50.8064C189.923 51.1059 186.455 49.514 185.549 49.082C186.194 48.3139 188.694 45.4316 190.075 45.1321C190.636 45.0106 191.22 45.0583 191.754 45.269C192.288 45.4798 192.748 45.8443 193.075 46.3162C193.401 46.7882 193.581 47.3465 193.59 47.9205C193.6 48.4945 193.439 49.0584 193.128 49.5409V49.5409Z" fill="#3F3D56"/>
<path id="Vector_15" d="M44.8936 94.7723L54.9296 84.7363C55.2564 84.4095 55.6627 84.1736 56.1085 84.0519C56.5543 83.9301 57.0241 83.9267 57.4716 84.0419C57.9191 84.1572 58.3289 84.3871 58.6604 84.7091C58.9919 85.0311 59.2337 85.4339 59.3619 85.8779V85.8779C59.4938 86.3345 59.5009 86.8181 59.3824 87.2783C59.2638 87.7386 59.024 88.1586 58.688 88.4946L52.2807 94.9019L61.223 102.03L61.2184 102.037C61.2632 102.034 61.3073 102.03 61.3526 102.03C61.8904 102.03 62.4161 102.189 62.8635 102.487C63.3109 102.786 63.6598 103.21 63.8662 103.707C64.0727 104.203 64.1274 104.75 64.0234 105.277C63.9195 105.805 63.6615 106.29 63.2822 106.671C62.9028 107.052 62.419 107.313 61.8919 107.419C61.3647 107.525 60.8179 107.473 60.3203 107.269C59.8228 107.065 59.3969 106.718 59.0963 106.272C58.7958 105.826 58.6341 105.301 58.6317 104.764L44.8936 94.7723Z" fill="#A0616A"/>
<path id="Vector_16" d="M74.532 156.759L77.509 155.647L74.639 143.636L70.2452 145.276L74.532 156.759Z" fill="#A0616A"/>
<path id="Vector_17" d="M84.2824 156.268L74.9261 159.761L73.5766 156.146L79.446 153.955C80.3707 153.61 81.3948 153.646 82.2929 154.056C83.1909 154.466 83.8894 155.215 84.2346 156.14L84.2824 156.268Z" fill="#2F2E41"/>
<path id="Vector_18" d="M47.7496 155.804L50.9273 155.803L52.4392 143.546L47.7491 143.547L47.7496 155.804Z" fill="#A0616A"/>
<path id="Vector_19" d="M57.0559 158.754L47.0689 158.754L47.0687 154.896L53.3338 154.895C54.3209 154.895 55.2676 155.287 55.9657 155.985C56.6637 156.683 57.0559 157.63 57.0559 158.617L57.0559 158.754Z" fill="#2F2E41"/>
<path id="Vector_20" d="M55.7799 98.401C55.7799 98.401 63.5557 97.1051 66.1477 100.215L77.1635 151.147L70.9428 151.925C70.9428 151.925 68.8693 125.487 58.5014 118.489C58.5014 118.489 50.9848 141.816 52.2807 152.443L46.8376 151.925C46.8376 151.925 45.1529 107.214 55.7799 98.401Z" fill="#2F2E41"/>
<path id="Vector_21" d="M71.9368 116.785L72.8289 115.614L72.6826 115.502L73.284 114.713C73.4247 114.529 73.5276 114.318 73.5869 114.094C73.6462 113.869 73.6608 113.636 73.6297 113.406C73.5987 113.176 73.5226 112.954 73.4059 112.753C73.2892 112.553 73.1341 112.377 72.9495 112.237L72.9495 112.236L70.7858 110.588C70.6012 110.447 70.3908 110.344 70.1664 110.285C69.942 110.225 69.7082 110.211 69.4782 110.242C69.2482 110.273 69.0266 110.349 68.826 110.466C68.6254 110.582 68.4497 110.737 68.3091 110.922L68.309 110.922L63.2035 117.622C63.0628 117.806 62.9599 118.017 62.9006 118.241C62.8413 118.466 62.8267 118.699 62.8578 118.929C62.8888 119.159 62.9649 119.381 63.0816 119.582C63.1983 119.782 63.3534 119.958 63.538 120.099L63.538 120.099L65.7017 121.747C66.0745 122.031 66.5448 122.156 67.0093 122.093C67.4738 122.03 67.8943 121.786 68.1784 121.413L68.1785 121.413L70.564 118.283L70.7103 118.394L71.6023 117.224L71.456 117.112L71.7905 116.673L71.9368 116.785Z" fill="#E6E6E6"/>
<path id="Vector_22" d="M70.195 114.527C70.703 114.527 71.1149 114.115 71.1149 113.607C71.1149 113.099 70.703 112.687 70.195 112.687C69.687 112.687 69.2752 113.099 69.2752 113.607C69.2752 114.115 69.687 114.527 70.195 114.527Z" fill="white"/>
<path id="Vector_23" d="M57.6623 78.2028C61.0537 78.2028 63.8029 75.4535 63.8029 72.0621C63.8029 68.6707 61.0537 65.9214 57.6623 65.9214C54.2709 65.9214 51.5216 68.6707 51.5216 72.0621C51.5216 75.4535 54.2709 78.2028 57.6623 78.2028Z" fill="#A0616A"/>
<path id="Vector_24" d="M51.6328 83.6269C51.6328 83.6269 57.3351 76.8878 62.0006 82.3309C65.0025 85.8331 66.5902 90.3292 66.4532 94.9398L66.2773 100.863L55.5207 99.1786L51.6328 83.6269Z" fill="#CCCCCC"/>
<path id="Vector_25" d="M59.7822 81.8966C59.3769 81.9019 58.9776 81.9955 58.6121 82.1708C58.2466 82.3461 57.9237 82.599 57.6659 82.9117C57.4081 83.2245 57.2215 83.5897 57.1191 83.9819C57.0168 84.3741 57.0011 84.784 57.0732 85.1828L62.9584 117.753L62.9256 117.798C62.6909 118.118 62.5305 118.486 62.4561 118.876C62.3817 119.266 62.3953 119.667 62.4957 120.051C62.5962 120.435 62.781 120.792 63.0367 121.095C63.2925 121.399 63.6127 121.641 63.9741 121.805C64.5618 122.064 65.2227 122.106 65.8384 121.923C66.4542 121.74 66.9847 121.344 67.3351 120.805C67.6832 120.262 67.8217 119.611 67.725 118.974C67.6282 118.336 67.3028 117.756 66.8094 117.341L66.771 117.308L62.587 84.3354C62.5019 83.6615 62.1737 83.0419 61.6642 82.5928C61.1546 82.1438 60.4987 81.8961 59.8195 81.8963C59.8071 81.8963 59.7946 81.8963 59.7822 81.8966Z" fill="#A0616A"/>
<path id="Vector_26" d="M58.6577 73.1244L61.296 70.0163C61.9759 69.2153 62.687 68.3429 62.7832 67.2966C62.8886 66.1497 62.191 65.0349 61.2373 64.3892C60.2836 63.7435 59.1125 63.5005 57.9643 63.4114C55.8346 63.246 53.5935 63.598 51.8428 64.8218C50.092 66.0457 48.9466 68.2552 49.3735 70.3482C49.7096 71.9963 50.9482 73.575 50.4668 75.1866C49.94 76.9499 47.7799 77.491 46.0163 78.0168C43.056 78.8994 40.2293 80.637 38.6779 83.3083C37.1265 85.9796 37.1332 89.6629 39.2013 91.9576C40.5404 93.4435 42.5602 94.1949 44.5572 94.3079C46.5543 94.421 48.5421 93.9507 50.436 93.3073C52.1803 92.7148 53.9058 91.9527 55.279 90.7248C56.6522 89.4969 57.6415 87.7398 57.5987 85.8981C57.5579 84.143 56.6177 82.5443 56.2315 80.8317C55.9268 79.3976 56.0068 77.9085 56.4632 76.5153C56.9196 75.1222 57.7363 73.8744 58.8305 72.8986" fill="#2F2E41"/>
<path id="Vector_27" d="M54.4653 62.9755L56.1273 62.6493C56.2646 62.6224 56.406 62.6228 56.5432 62.6504C56.6804 62.6781 56.8108 62.7325 56.927 62.8106C57.0432 62.8886 57.1429 62.9888 57.2203 63.1054C57.2978 63.222 57.3516 63.3527 57.3785 63.4901L59.6766 71.2014L55.9227 71.938L53.6246 64.2267C53.5702 63.9493 53.6282 63.6616 53.7858 63.4269C53.9435 63.1923 54.1879 63.0299 54.4653 62.9755Z" fill="#ED3232"/>
<path id="Vector_28" d="M58.1221 75.5769C59.7915 75.5769 61.1448 74.2236 61.1448 72.5542C61.1448 70.8848 59.7915 69.5315 58.1221 69.5315C56.4527 69.5315 55.0994 70.8848 55.0994 72.5542C55.0994 74.2236 56.4527 75.5769 58.1221 75.5769Z" fill="white"/>
<path id="Vector_29" d="M58.1221 74.2335C59.0496 74.2335 59.8014 73.4816 59.8014 72.5542C59.8014 71.6268 59.0496 70.875 58.1221 70.875C57.1947 70.875 56.4429 71.6268 56.4429 72.5542C56.4429 73.4816 57.1947 74.2335 58.1221 74.2335Z" fill="#ED3232"/>
</g>
<defs>
<clipPath id="clip0">
<rect width="247" height="161.635" fill="white"/>
</clipPath>
</defs>
</svg>
